<svg width="106" height="24" viewBox="0 0 106 24" fill="none" xmlns="http://www.w3.org/2000/svg">
<path d="M3.27609 23.6565H0V4.34346H3.27609L9.51123 19.7199L15.7464 4.34346H19.0753V23.6565H15.7992V17.712C15.7992 13.8283 15.7992 12.6922 15.9841 11.3184L11.07 23.6565H7.95244L3.06473 11.3448C3.24967 12.5073 3.27609 14.3303 3.27609 16.7345V23.6565Z" fill="white"/>
<path d="M25.7012 24C22.9271 24 21.2362 22.3884 21.2362 19.9313C21.2362 17.5271 22.9799 16.0211 26.071 15.7834L29.9812 15.4927V15.2021C29.9812 13.432 28.9244 12.7186 27.2864 12.7186C25.3841 12.7186 24.3273 13.5112 24.3273 14.8851H21.5796C21.5796 12.0581 23.9046 10.2087 27.4449 10.2087C30.9588 10.2087 33.1252 12.111 33.1252 15.7305V23.6565H30.2983L30.0605 21.7279C29.5057 23.0753 27.7355 24 25.7012 24ZM26.758 21.5694C28.7395 21.5694 30.0076 20.3804 30.0076 18.3725V17.6856L27.2864 17.897C25.2784 18.0819 24.5123 18.7424 24.5123 19.7992C24.5123 20.9881 25.3049 21.5694 26.758 21.5694Z" fill="white"/>
<path d="M40.5982 24C36.8201 24 34.4687 21.2259 34.4687 17.1836C34.4687 13.1149 36.8465 10.2087 40.7831 10.2087C42.6061 10.2087 44.2177 10.9749 45.0367 12.2695V4H48.2336V23.6565H45.2745L45.0632 21.6222C44.2706 23.1281 42.5797 24 40.5982 24ZM41.3115 21.041C43.5572 21.041 45.0103 19.4293 45.0103 17.0779C45.0103 14.7266 43.5572 13.0885 41.3115 13.0885C39.0658 13.0885 37.692 14.753 37.692 17.0779C37.692 19.4029 39.0658 21.041 41.3115 21.041Z" fill="white"/>
<path d="M53.4156 23.6565L49.1884 10.605H52.5438L54.2611 16.2061C54.5517 17.2365 54.8159 18.3725 55.0537 19.5878C55.2914 18.3197 55.5292 17.5007 55.9519 16.2061L57.7485 10.605H61.0246L62.7683 16.2061C62.9268 16.7345 63.4552 18.6896 63.6138 19.5614C63.8251 18.5839 64.2478 17.0251 64.4856 16.2061L66.2294 10.605H69.6375L65.1197 23.6565H62.1078L60.3113 18.0026C59.7829 16.2853 59.4922 15.0436 59.3866 14.3831C59.2545 14.9908 59.0167 15.9155 58.3562 18.0555L56.5596 23.6565H53.4156Z" fill="white"/>
<path d="M69.1213 17.1044C69.1213 13.0357 72.0539 10.2351 76.0962 10.2351C80.1385 10.2351 83.0711 13.0357 83.0711 17.1044C83.0711 21.1731 80.1385 23.9736 76.0962 23.9736C72.0539 23.9736 69.1213 21.1731 69.1213 17.1044ZM72.3446 17.1044C72.3446 19.4822 73.8769 21.0938 76.0962 21.0938C78.3155 21.0938 79.8479 19.4822 79.8479 17.1044C79.8479 14.7266 78.3155 13.1149 76.0962 13.1149C73.8769 13.1149 72.3446 14.7266 72.3446 17.1044Z" fill="white"/>
<path d="M87.8189 23.6565H84.6221V4H87.8189V23.6565Z" fill="white"/>
<path d="M88.8487 10.605H90.7245V9.01982C90.7245 5.47952 92.6003 4 95.4273 4C95.9292 4 96.5369 4.02642 97.0917 4.1321V6.87979H95.9557C94.3176 6.87979 93.9213 7.72523 93.9213 9.01982V10.605H97.0389V13.2999H93.9213V23.6565H90.7245V13.2999H88.8487V10.605Z" fill="white"/>
<path d="M102 0.015625C101.212 0.015625 100.442 0.249304 99.7864 0.687113C99.1312 1.12492 98.6205 1.7472 98.3189 2.47525C98.0173 3.2033 97.9384 4.00442 98.0922 4.77731C98.2459 5.55021 98.6254 6.26015 99.1826 6.81738C99.7398 7.3746 100.45 7.75408 101.223 7.90782C101.996 8.06155 102.797 7.98265 103.525 7.68108C104.253 7.37951 104.875 6.86883 105.313 6.2136C105.751 5.55837 105.984 4.78803 105.984 4C105.983 2.94366 105.563 1.93094 104.816 1.18399C104.069 0.437045 103.056 0.0168656 102 0.015625ZM102 7.51562C101.305 7.51562 100.625 7.30944 100.047 6.92314C99.4687 6.53683 99.0181 5.98777 98.752 5.34537C98.4859 4.70298 98.4163 3.9961 98.5519 3.31414C98.6876 2.63217 99.0224 2.00575 99.5141 1.51408C100.006 1.02241 100.632 0.687578 101.314 0.551927C101.996 0.416276 102.703 0.485897 103.345 0.751986C103.988 1.01808 104.537 1.46868 104.923 2.04682C105.309 2.62496 105.516 3.30468 105.516 4C105.515 4.93208 105.144 5.8257 104.485 6.48478C103.826 7.14386 102.932 7.51459 102 7.51562ZM102.787 4.44609C103.033 4.33713 103.234 4.14717 103.356 3.908C103.478 3.66882 103.514 3.39495 103.459 3.13221C103.403 2.86948 103.259 2.63383 103.05 2.4647C102.841 2.29557 102.581 2.20323 102.312 2.20312H101.062C101 2.20312 100.941 2.22782 100.897 2.27177C100.853 2.31573 100.828 2.37534 100.828 2.4375V5.5625C100.828 5.62466 100.853 5.68427 100.897 5.72823C100.941 5.77218 101 5.79688 101.062 5.79688C101.125 5.79688 101.184 5.77218 101.228 5.72823C101.272 5.68427 101.297 5.62466 101.297 5.5625V4.54688H102.291L103.055 5.69258C103.089 5.74438 103.143 5.78035 103.204 5.79259C103.265 5.80482 103.328 5.79231 103.38 5.75781C103.432 5.72331 103.468 5.66965 103.48 5.60863C103.492 5.54761 103.48 5.48422 103.445 5.43242L102.787 4.44609ZM101.297 2.67188H102.312C102.499 2.67188 102.678 2.74595 102.81 2.87782C102.942 3.00968 103.016 3.18852 103.016 3.375C103.016 3.56148 102.942 3.74032 102.81 3.87218C102.678 4.00405 102.499 4.07812 102.312 4.07812H101.297V2.67188Z" fill="white"/>
</svg>
