<svg width="120" height="120" viewBox="0 0 120 120" fill="none" xmlns="http://www.w3.org/2000/svg">
<path d="M41.75 15C47.65 14.15 53.9 20.6 55.7 29.5C57.5 38.35 54.25 46.25 48.35 47.15C42.5 48.05 36.2 41.6 34.35 32.7C32.5 23.85 35.85 15.95 41.75 15ZM77.5 15C83.45 15.95 86.75 23.85 85 32.7C83.1 41.6 76.85 48.05 70.95 47.15C65 46.25 61.75 38.35 63.6 29.5C65.4 20.6 71.65 14.15 77.5 15ZM15 38C20.7 35.55 28.45 40 32.5 47.75C36.3 55.65 35 63.95 29.35 66.4C23.7 68.85 16 64.45 12.05 56.6C8.10002 48.75 9.50002 40.4 15 38ZM105 38C110.5 40.4 111.9 48.75 107.95 56.6C104 64.45 96.3 68.85 90.65 66.4C85 63.95 83.7 55.65 87.5 47.75C91.55 40 99.3 35.55 105 38ZM96.65 91.9C96.85 96.6 93.25 101.8 88.95 103.75C80 107.85 69.4 99.35 59.45 99.35C49.5 99.35 38.8 108.2 30 103.75C25 101.3 21.55 94.8 22.2 89.4C23.1 81.95 32.05 77.95 37.35 72.5C44.4 65.45 49.4 52.2 59.45 52.2C69.45 52.2 74.75 65.25 81.5 72.5C87.05 78.6 96.3 83.75 96.65 91.9Z" fill="#FFB400"/>
</svg>
