<svg width="120" height="120" viewBox="0 0 120 120" fill="none" xmlns="http://www.w3.org/2000/svg">
<path d="M60 109.5C59.4167 109.5 58.875 109.458 58.375 109.375C57.875 109.292 57.375 109.167 56.875 109C45.625 105.25 36.6667 98.3133 30 88.19C23.3333 78.0667 20 67.17 20 55.5V31.875C20 29.7917 20.605 27.9167 21.815 26.25C23.025 24.5833 24.5867 23.375 26.5 22.625L56.5 11.375C57.6667 10.9583 58.8333 10.75 60 10.75C61.1667 10.75 62.3333 10.9583 63.5 11.375L93.5 22.625C95.4167 23.375 96.98 24.5833 98.19 26.25C99.4 27.9167 100.003 29.7917 100 31.875V55.5C100 67.1667 96.6667 78.0633 90 88.19C83.3333 98.3167 74.375 105.253 63.125 109C62.625 109.167 62.125 109.292 61.625 109.375C61.125 109.458 60.5833 109.5 60 109.5Z" fill="#FFB400"/>
</svg>
